<svg width="573" height="486" viewBox="0 0 573 486" fill="none" xmlns="http://www.w3.org/2000/svg">
<g opacity="0.7">
<g opacity="0.7">
<path opacity="0.7" d="M195.373 363.926L419.004 134.134" stroke="#969696" stroke-width="2" stroke-miterlimit="10" stroke-linecap="round" stroke-linejoin="round" stroke-dasharray="0.3 0.3"/>
<path opacity="0.7" d="M197.165 382.669L434.849 138.039" stroke="#969696" stroke-width="2" stroke-miterlimit="10" stroke-linecap="round" stroke-linejoin="round" stroke-dasharray="0.3 0.3"/>
<path opacity="0.7" d="M204.353 395.715L448.759 143.986" stroke="#969696" stroke-width="2" stroke-miterlimit="10" stroke-linecap="round" stroke-linejoin="round" stroke-dasharray="0.3 0.3"/>
<path opacity="0.7" d="M214.447 405.688L464.32 148.181" stroke="#969696" stroke-width="2" stroke-miterlimit="10" stroke-linecap="round" stroke-linejoin="round" stroke-dasharray="0.3 0.3"/>
<path opacity="0.7" d="M222.323 418.003L480.023 152.236" stroke="#969696" stroke-width="2" stroke-miterlimit="10" stroke-linecap="round" stroke-linejoin="round" stroke-dasharray="0.3 0.3"/>
<path opacity="0.7" d="M231.577 428.876L496.687 155.28" stroke="#969696" stroke-width="2" stroke-miterlimit="10" stroke-linecap="round" stroke-linejoin="round" stroke-dasharray="0.3 0.3"/>
<path opacity="0.7" d="M240.749 439.82L509.443 162.449" stroke="#969696" stroke-width="2" stroke-miterlimit="10" stroke-linecap="round" stroke-linejoin="round" stroke-dasharray="0.3 0.3"/>
<path opacity="0.7" d="M249.942 450.743L525.054 166.604" stroke="#969696" stroke-width="2" stroke-miterlimit="10" stroke-linecap="round" stroke-linejoin="round" stroke-dasharray="0.3 0.3"/>
<path opacity="0.7" d="M259.428 461.366L537.75 173.833" stroke="#969696" stroke-width="2" stroke-miterlimit="10" stroke-linecap="round" stroke-linejoin="round" stroke-dasharray="0.3 0.3"/>
<path opacity="0.7" d="M267.791 473.16L548.329 183.294" stroke="#969696" stroke-width="2" stroke-miterlimit="10" stroke-linecap="round" stroke-linejoin="round" stroke-dasharray="0.3 0.3"/>
<path opacity="0.7" d="M277.287 483.774L560.256 191.344" stroke="#969696" stroke-width="2" stroke-miterlimit="10" stroke-linecap="round" stroke-linejoin="round" stroke-dasharray="0.3 0.3"/>
<path opacity="0.7" d="M287.371 493.756L572 199.574" stroke="#969696" stroke-width="2" stroke-miterlimit="10" stroke-linecap="round" stroke-linejoin="round" stroke-dasharray="0.3 0.3"/>
<path opacity="0.7" d="M295.865 505.43L570.441 221.852" stroke="#969696" stroke-width="2" stroke-miterlimit="10" stroke-linecap="round" stroke-linejoin="round" stroke-dasharray="0.3 0.3"/>
</g>
</g>
<path d="M388.207 99.962C391.008 99.962 393.279 97.7162 393.279 94.9459C393.279 92.1755 391.008 89.9297 388.207 89.9297C385.405 89.9297 383.135 92.1755 383.135 94.9459C383.135 97.7162 385.405 99.962 388.207 99.962Z" fill="url(#paint0_linear_15_92)"/>
<path d="M388.207 103.536C393.004 103.536 396.893 99.6903 396.893 94.9459C396.893 90.2015 393.004 86.3553 388.207 86.3553C383.409 86.3553 379.52 90.2015 379.52 94.9459C379.52 99.6903 383.409 103.536 388.207 103.536Z" stroke="url(#paint1_linear_15_92)" stroke-miterlimit="10"/>
<path d="M277.996 342.15C277.996 345.504 275.242 348.227 271.85 348.227C268.459 348.227 265.705 345.504 265.705 342.15C265.705 338.795 268.459 336.072 271.85 336.072C275.242 336.072 277.996 338.785 277.996 342.15Z" stroke="url(#paint2_linear_15_92)" stroke-miterlimit="10"/>
<path d="M412.707 122.029C419.394 122.029 424.815 116.668 424.815 110.054C424.815 103.441 419.394 98.0797 412.707 98.0797C406.02 98.0797 400.599 103.441 400.599 110.054C400.599 116.668 406.02 122.029 412.707 122.029Z" fill="url(#paint3_linear_15_92)"/>
<path d="M70.9578 239.834C70.9578 242.898 68.447 245.381 65.349 245.381C62.251 245.381 59.7402 242.898 59.7402 239.834C59.7402 236.77 62.251 234.287 65.349 234.287C68.447 234.287 70.9578 236.77 70.9578 239.834Z" fill="url(#paint4_linear_15_92)"/>
<path d="M351.831 81.139L360.861 70.496" stroke="url(#paint5_linear_15_92)" stroke-miterlimit="10"/>
<path d="M354.604 83.4318L368.788 66.7213" stroke="url(#paint6_linear_15_92)" stroke-miterlimit="10"/>
<path d="M351.831 92.2727L366.399 75.0916" stroke="url(#paint7_linear_15_92)" stroke-miterlimit="10"/>
<path d="M76.3335 205.051L85.3541 194.408" stroke="url(#paint8_linear_15_92)" stroke-miterlimit="10"/>
<path d="M79.0977 207.354L93.2815 190.633" stroke="url(#paint9_linear_15_92)" stroke-miterlimit="10"/>
<path d="M76.3335 216.185L90.892 199.004" stroke="url(#paint10_linear_15_92)" stroke-miterlimit="10"/>
<path d="M377.384 264.614L388.905 251.018" stroke="url(#paint11_linear_15_92)" stroke-miterlimit="10"/>
<path d="M380.917 267.548L399.029 246.192" stroke="url(#paint12_linear_15_92)" stroke-miterlimit="10"/>
<path d="M377.384 278.832L395.992 256.895" stroke="url(#paint13_linear_15_92)" stroke-miterlimit="10"/>
<g opacity="0.5">
<path opacity="0.5" d="M358.695 27.2628L345.169 42.1711" stroke="url(#paint14_linear_15_92)" stroke-miterlimit="10"/>
<path opacity="0.5" d="M362.572 30.7069L341.332 54.1257" stroke="url(#paint15_linear_15_92)" stroke-miterlimit="10"/>
<path opacity="0.5" d="M374.762 25L352.934 49.0595" stroke="url(#paint16_linear_15_92)" stroke-miterlimit="10"/>
</g>
<path d="M70.9575 258.146L88.1179 237.911" stroke="url(#paint17_linear_15_92)" stroke-miterlimit="10"/>
<path d="M76.2222 262.512L103.183 230.733" stroke="url(#paint18_linear_15_92)" stroke-miterlimit="10"/>
<path d="M70.9575 279.312L98.647 246.652" stroke="url(#paint19_linear_15_92)" stroke-miterlimit="10"/>
<path d="M103.183 214.262C105.045 214.262 106.554 212.77 106.554 210.928C106.554 209.087 105.045 207.594 103.183 207.594C101.321 207.594 99.8113 209.087 99.8113 210.928C99.8113 212.77 101.321 214.262 103.183 214.262Z" fill="white"/>
<path d="M105.4 280.934C105.4 282.777 103.891 284.269 102.029 284.269C100.166 284.269 98.6572 282.777 98.6572 280.934C98.6572 279.092 100.166 277.6 102.029 277.6C103.891 277.6 105.4 279.092 105.4 280.934Z" fill="white"/>
<path d="M87.7435 119.236C87.7435 120.087 87.0449 120.778 86.1844 120.778C85.3238 120.778 84.6252 120.087 84.6252 119.236C84.6252 118.385 85.3238 117.694 86.1844 117.694C87.0449 117.704 87.7435 118.385 87.7435 119.236Z" fill="white"/>
<path d="M386.688 163.801C387.549 163.801 388.247 163.11 388.247 162.259C388.247 161.407 387.549 160.717 386.688 160.717C385.827 160.717 385.129 161.407 385.129 162.259C385.129 163.11 385.827 163.801 386.688 163.801Z" fill="white"/>
<path d="M402.147 301.039C402.147 301.89 401.449 302.581 400.588 302.581C399.728 302.581 399.029 301.89 399.029 301.039C399.029 300.188 399.728 299.497 400.588 299.497C401.449 299.507 402.147 300.188 402.147 301.039Z" fill="white"/>
<path d="M70.9575 98.28C72.8195 98.28 74.3288 96.7873 74.3288 94.9459C74.3288 93.1046 72.8195 91.6118 70.9575 91.6118C69.0956 91.6118 67.5862 93.1046 67.5862 94.9459C67.5862 96.7873 69.0956 98.28 70.9575 98.28Z" fill="white"/>
<path d="M162.753 316.648C162.753 318.49 161.244 319.982 159.381 319.982C157.519 319.982 156.01 318.49 156.01 316.648C156.01 314.806 157.519 313.314 159.381 313.314C161.244 313.314 162.753 314.806 162.753 316.648Z" fill="white"/>
<path d="M380.755 314.636C380.755 316.478 379.247 317.97 377.384 317.97C375.521 317.97 374.012 316.478 374.012 314.636C374.012 312.793 375.521 311.302 377.384 311.302C379.247 311.302 380.755 312.793 380.755 314.636Z" fill="white"/>
<path d="M438.473 216.185C438.473 218.027 436.964 219.519 435.102 219.519C433.239 219.519 431.73 218.027 431.73 216.185C431.73 214.343 433.239 212.851 435.102 212.851C436.964 212.841 438.473 214.343 438.473 216.185Z" fill="white"/>
<path d="M33.2454 170.469C35.1073 170.469 36.6167 168.976 36.6167 167.135C36.6167 165.293 35.1073 163.801 33.2454 163.801C31.3834 163.801 29.874 165.293 29.874 167.135C29.874 168.976 31.3834 170.469 33.2454 170.469Z" fill="white"/>
<path d="M128.594 320.053L137.908 323.797L142.1 309.479L128.594 320.053Z" fill="#FF7E3D"/>
<path d="M103.183 308.098L110.756 327.221L139.822 302.05L103.183 308.098Z" fill="url(#paint20_linear_15_92)"/>
<path d="M431.274 150.654L427.215 170.799L394.129 151.065L431.274 150.654Z" fill="#FF7E3D"/>
<path d="M97.1687 74.0503L84.8477 82.5908L99.6693 90.1701L97.1687 74.0503Z" fill="#FF7E3D"/>
<path d="M399.11 184.476L385.108 179.039L386.91 195.439L399.11 184.476Z" fill="url(#paint21_linear_15_92)"/>
<path d="M263.816 37.7874C249.683 30.2157 232.178 25.2353 216.123 29.669C203.661 33.1107 194.257 42.0794 187.154 52.1818C179.158 63.5495 173.526 76.294 167.558 88.7145C163.901 96.3166 159.919 103.625 154.581 110.286C148.844 117.453 142.014 123.81 134.396 129.094C126.516 134.55 117.837 138.811 108.632 141.757C98.1352 145.118 87.2285 146.98 76.4584 149.329C58.7534 153.206 39.9767 159.229 28.387 173.583C23.2594 179.93 20.2123 187.623 20.0757 195.691C19.9286 203.971 22.6815 212.13 27.0211 219.216C36.8665 235.321 53.9831 244.532 71.8456 250.434C90.9691 256.75 111.154 259.757 129.878 267.248C139.23 270.993 148.182 275.902 155.6 282.614C162.955 289.274 168.64 297.383 173.694 305.744C183.224 321.535 190.895 338.754 204.628 351.741C210.964 357.734 218.539 362.583 227.093 365.053C235.688 367.523 244.871 367.523 253.603 365.731C294.634 357.299 312.896 317.466 329.435 284.76C338.681 266.478 348.936 248.683 364.519 234.663C379.565 221.129 397.523 210.804 411.55 196.187C424.012 183.209 433.384 166.588 431.188 148.398C429.097 131.108 417.928 115.813 404.226 104.992C388.444 92.5307 368.921 85.2424 349.966 78.5412C339.795 74.9477 329.498 71.5971 319.621 67.2848C309.87 63.0232 300.497 58.0327 291.24 52.8702C286.817 50.4002 282.425 47.8898 278.011 45.3997C273.325 42.7576 268.46 40.4699 263.721 37.9291C263.354 37.7267 263.017 38.2733 263.385 38.4758C268.113 41.0064 272.611 43.9521 277.276 46.5941C281.689 49.0843 286.081 51.5947 290.505 54.0646C299.552 59.1158 308.714 63.995 318.223 68.1857C337.084 76.5066 357.237 81.7197 376.045 90.1822C393.582 98.0678 410.079 108.656 420.607 124.67C425.441 132.019 428.887 140.32 429.833 149.005C430.821 158.065 428.929 167.124 424.915 175.334C416.509 192.532 400.843 204.801 385.597 216.209C377.506 222.263 369.331 228.265 361.945 235.118C354.8 241.739 348.653 249.219 343.315 257.257C332.429 273.645 324.811 291.744 315.47 308.943C306.35 325.726 295.191 342.53 278.778 353.523C263.616 363.676 243.642 369.122 225.664 363.17C207.969 357.309 196.274 341.791 187.364 326.769C177.907 310.816 170.048 293.313 155.621 280.782C141.373 268.412 122.638 262.561 104.461 257.884C85.2531 252.944 65.1945 248.895 48.2565 238.347C33.315 229.045 20.8953 212.95 21.4837 195.144C22.0721 177.105 37.2028 164.422 53.216 157.619C72.4341 149.45 93.9953 148.732 113.539 141.484C129.91 135.41 144.42 124.943 155.211 111.642C164.794 99.8393 170.195 85.7789 176.93 72.417C182.741 60.8873 189.329 49.064 199.3 40.3383C209.598 31.319 222.816 27.9178 236.518 29.7601C245.964 31.0255 254.948 34.2647 263.301 38.6478C263.868 38.9211 264.373 38.0911 263.816 37.7874Z" fill="url(#paint22_linear_15_92)"/>
<g opacity="0.4248">
<path opacity="0.4248" d="M266.916 11.2683C251.45 2.54411 232.284 -3.19037 214.717 1.9319C201.091 5.90114 190.804 16.2375 183.041 27.8698C174.282 40.9917 168.118 55.6953 161.572 70.0213C157.56 78.8067 153.195 87.235 147.353 94.9286C141.068 103.204 133.577 110.561 125.21 116.652C116.572 122.958 107.05 127.876 96.9637 131.274C85.4699 135.152 73.5137 137.294 61.7183 140.019C42.3408 144.488 21.7768 151.427 9.08647 167.977C3.48542 175.283 0.167026 184.14 0.00613368 193.425C-0.154758 202.966 2.86197 212.353 7.59823 220.516C18.3679 239.076 37.1018 249.699 56.6502 256.494C77.6064 263.78 99.7189 267.249 120.233 275.892C130.5 280.218 140.324 285.891 148.459 293.646C156.524 301.329 162.758 310.696 168.299 320.359C178.727 338.573 187.134 358.44 202.177 373.419C209.105 380.327 217.381 385.908 226.743 388.755C236.145 391.602 246.181 391.602 255.734 389.541C300.653 379.816 320.644 333.869 338.754 296.146C348.89 275.045 360.123 254.494 377.217 238.311C393.709 222.7 413.378 210.782 428.743 193.915C442.379 178.956 452.636 159.804 450.222 138.835C447.929 118.918 435.702 101.285 420.709 88.8165C403.433 74.4497 382.054 66.0419 361.309 58.3177C350.157 54.1647 338.865 50.2975 328.035 45.3181C317.355 40.3999 307.079 34.645 296.942 28.6758C292.095 25.829 287.279 22.9312 282.452 20.0537C277.324 17.0028 272.014 14.3192 266.825 11.3907C266.473 11.1867 266.152 11.7377 266.504 11.9417C271.682 14.86 276.64 18.217 281.758 21.2577C286.585 24.1352 291.412 27.0229 296.248 29.8799C306.153 35.7062 316.189 41.3386 326.607 46.1752C347.271 55.7769 369.354 61.7869 389.958 71.5519C409.185 80.6638 427.265 92.8878 438.819 111.377C444.118 119.866 447.899 129.468 448.935 139.509C450.021 149.988 447.939 160.447 443.525 169.946C434.304 189.803 417.139 203.965 400.436 217.138C391.567 224.128 382.617 231.046 374.522 238.954C366.699 246.586 359.972 255.219 354.129 264.484C342.203 283.401 333.857 304.289 323.62 324.135C313.615 343.522 301.387 362.919 283.387 375.612C266.755 387.337 244.833 393.632 225.114 386.745C205.707 379.969 192.865 362.052 183.091 344.685C172.734 326.288 164.126 306.095 148.328 291.636C132.732 277.371 112.218 270.626 92.3179 265.239C71.2712 259.535 49.2793 254.851 30.7265 242.689C14.3356 231.944 0.710038 213.333 1.34355 192.752C1.98712 171.905 18.5892 157.232 36.1565 149.365C57.2133 139.937 80.8544 139.111 102.273 130.733C120.182 123.734 136.07 111.652 147.886 96.3265C158.384 82.7045 164.297 66.4908 171.668 51.0832C178.043 37.7674 185.263 24.125 196.194 14.0437C207.507 3.6155 222.007 -0.312927 237.06 1.82985C247.418 3.29919 257.262 7.03376 266.413 12.105C266.976 12.4009 267.459 11.5642 266.916 11.2683Z" fill="url(#paint23_linear_15_92)"/>
</g>
<path d="M342.963 235.481C354.989 222.895 370.2 213.859 383.329 202.469C394.773 192.543 405.288 179.928 407.861 164.851C410.331 150.298 404.492 135.983 395.069 124.801C384.574 112.344 369.966 104.257 354.918 97.969C338.472 91.0978 321.106 86.4215 304.977 78.8287C288.908 71.2556 274.146 61.4482 258.312 53.4895C246.317 47.4588 231.586 43.7711 218.243 47.4983C207.973 50.3654 200.01 57.5232 193.905 65.7686C186.933 75.1805 182.022 85.8778 177.051 96.3476C174.202 102.359 171.415 108.389 167.669 113.946C163.473 120.154 158.399 125.8 152.652 130.703C146.761 135.735 140.146 139.967 133.061 143.239C124.904 147.006 116.135 149.211 107.345 151.099C91.3581 154.53 74.6974 157.298 61.2729 167.046C55.6274 171.149 50.7476 176.369 47.8994 182.687C45.0512 188.994 44.4795 195.984 45.9189 202.707C49.0122 217.121 59.9356 228.728 72.8292 235.886C101.965 252.07 140.656 249.292 165.688 272.921C177.837 284.389 184.421 299.832 192.895 313.762C200.418 326.14 210.107 338.449 224.266 344.015C238.711 349.7 255.168 346.734 268.47 339.596C282.854 331.884 293.39 319.15 301.659 305.665C303.741 302.264 305.701 298.804 307.58 295.294C309.519 291.685 311.01 287.909 312.837 284.251C313.011 283.895 312.47 283.578 312.286 283.934C310.479 287.563 308.294 291.033 306.375 294.602C304.446 298.191 302.445 301.75 300.301 305.23C296.085 312.081 291.358 318.656 285.764 324.519C274.973 335.829 260.426 344.331 244.306 345.537C236.557 346.121 228.738 344.845 221.765 341.464C214.956 338.162 209.218 333.169 204.359 327.544C194.12 315.69 187.994 301.275 179.664 288.215C175.519 281.72 170.782 275.511 164.912 270.38C159.012 265.219 152.1 261.265 144.852 258.17C129.957 251.803 113.879 248.936 98.3409 244.458C82.8644 239.999 67.1327 233.622 56.7504 221.125C47.3481 209.805 42.8869 194.026 50.4822 180.67C57.8529 167.708 72.8292 160.808 86.9582 157.041C103.486 152.632 120.81 150.961 136.226 143.22C149.232 136.694 160.471 126.897 168.557 115.073C175.458 104.988 179.715 93.3421 185.309 82.5658C190.25 73.0648 195.957 63.4354 204.369 56.3962C213.087 49.0999 224.103 46.3416 235.465 47.7257C252.422 49.7821 266.755 59.5796 281.16 67.7261C288.745 72.0169 296.391 76.2285 304.303 79.9458C311.929 83.5347 319.79 86.4512 327.752 89.2491C357.378 99.6991 393.517 111.771 404.665 143.704C407.126 150.743 407.85 158.277 406.411 165.593C404.941 173.047 401.439 179.968 396.937 186.137C387.321 199.345 373.6 208.698 360.696 218.624C354.193 223.627 347.864 228.847 342.279 234.808C341.861 235.263 342.545 235.925 342.963 235.481Z" fill="url(#paint24_linear_15_92)"/>
<defs>
<linearGradient id="paint0_linear_15_92" x1="383.139" y1="94.9498" x2="393.273" y2="94.9498" gradientUnits="userSpaceOnUse">
<stop offset="0.0277" stop-color="#FFD24D"/>
<stop offset="0.7154" stop-color="#F6BE56"/>
<stop offset="1" stop-color="#F2B45A"/>
</linearGradient>
<linearGradient id="paint1_linear_15_92" x1="379.01" y1="94.9499" x2="397.401" y2="94.9499" gradientUnits="userSpaceOnUse">
<stop offset="0.0277" stop-color="#FFD24D"/>
<stop offset="0.7154" stop-color="#F6BE56"/>
<stop offset="1" stop-color="#F2B45A"/>
</linearGradient>
<linearGradient id="paint2_linear_15_92" x1="265.196" y1="342.146" x2="278.497" y2="342.146" gradientUnits="userSpaceOnUse">
<stop offset="0.0277" stop-color="#FFD24D"/>
<stop offset="0.7154" stop-color="#F6BE56"/>
<stop offset="1" stop-color="#F2B45A"/>
</linearGradient>
<linearGradient id="paint3_linear_15_92" x1="400.594" y1="110.059" x2="424.817" y2="110.059" gradientUnits="userSpaceOnUse">
<stop offset="0.0277" stop-color="#FFD24D"/>
<stop offset="0.7154" stop-color="#F6BE56"/>
<stop offset="1" stop-color="#F2B45A"/>
</linearGradient>
<linearGradient id="paint4_linear_15_92" x1="59.7479" y1="239.831" x2="70.9573" y2="239.831" gradientUnits="userSpaceOnUse">
<stop offset="0.0277" stop-color="#FFD24D"/>
<stop offset="0.7154" stop-color="#F6BE56"/>
<stop offset="1" stop-color="#F2B45A"/>
</linearGradient>
<linearGradient id="paint5_linear_15_92" x1="351.045" y1="76.2756" x2="361.649" y2="75.336" gradientUnits="userSpaceOnUse">
<stop offset="0.0277" stop-color="#FFD24D"/>
<stop offset="0.7154" stop-color="#F6BE56"/>
<stop offset="1" stop-color="#F2B45A"/>
</linearGradient>
<linearGradient id="paint6_linear_15_92" x1="353.569" y1="75.781" x2="369.82" y2="74.3409" gradientUnits="userSpaceOnUse">
<stop offset="0.0277" stop-color="#FFD24D"/>
<stop offset="0.7154" stop-color="#F6BE56"/>
<stop offset="1" stop-color="#F2B45A"/>
</linearGradient>
<linearGradient id="paint7_linear_15_92" x1="350.779" y1="84.4039" x2="367.457" y2="82.9261" gradientUnits="userSpaceOnUse">
<stop offset="0.0277" stop-color="#FFD24D"/>
<stop offset="0.7154" stop-color="#F6BE56"/>
<stop offset="1" stop-color="#F2B45A"/>
</linearGradient>
<linearGradient id="paint8_linear_15_92" x1="75.9411" y1="199.73" x2="85.742" y2="199.73" gradientUnits="userSpaceOnUse">
<stop offset="0.0277" stop-color="#FFD24D"/>
<stop offset="0.1674" stop-color="#EBC34D"/>
<stop offset="0.4544" stop-color="#B69D4D"/>
<stop offset="0.8604" stop-color="#625F4E"/>
<stop offset="1" stop-color="#44494E"/>
</linearGradient>
<linearGradient id="paint9_linear_15_92" x1="78.7127" y1="198.99" x2="93.6676" y2="198.99" gradientUnits="userSpaceOnUse">
<stop offset="0.0277" stop-color="#FFD24D"/>
<stop offset="0.1674" stop-color="#EBC34D"/>
<stop offset="0.4544" stop-color="#B69D4D"/>
<stop offset="0.8604" stop-color="#625F4E"/>
<stop offset="1" stop-color="#44494E"/>
</linearGradient>
<linearGradient id="paint10_linear_15_92" x1="75.9411" y1="207.595" x2="91.2847" y2="207.595" gradientUnits="userSpaceOnUse">
<stop offset="0.0277" stop-color="#FFD24D"/>
<stop offset="0.1674" stop-color="#EBC34D"/>
<stop offset="0.4544" stop-color="#B69D4D"/>
<stop offset="0.8604" stop-color="#625F4E"/>
<stop offset="1" stop-color="#44494E"/>
</linearGradient>
<linearGradient id="paint11_linear_15_92" x1="376.469" y1="258.395" x2="389.816" y2="257.212" gradientUnits="userSpaceOnUse">
<stop offset="0.0277" stop-color="#FFD24D"/>
<stop offset="0.7154" stop-color="#F6BE56"/>
<stop offset="1" stop-color="#F2B45A"/>
</linearGradient>
<linearGradient id="paint12_linear_15_92" x1="379.693" y1="257.763" x2="400.255" y2="255.941" gradientUnits="userSpaceOnUse">
<stop offset="0.0277" stop-color="#FFD24D"/>
<stop offset="0.7154" stop-color="#F6BE56"/>
<stop offset="1" stop-color="#F2B45A"/>
</linearGradient>
<linearGradient id="paint13_linear_15_92" x1="376.129" y1="268.778" x2="397.235" y2="266.908" gradientUnits="userSpaceOnUse">
<stop offset="0.0277" stop-color="#FFD24D"/>
<stop offset="0.7154" stop-color="#F6BE56"/>
<stop offset="1" stop-color="#F2B45A"/>
</linearGradient>
<linearGradient id="paint14_linear_15_92" x1="351.525" y1="27.2963" x2="352.32" y2="42.1443" gradientUnits="userSpaceOnUse">
<stop offset="0.0277" stop-color="#FFD24D"/>
<stop offset="0.7154" stop-color="#F6BE56"/>
<stop offset="1" stop-color="#F2B45A"/>
</linearGradient>
<linearGradient id="paint15_linear_15_92" x1="351.324" y1="30.9599" x2="352.552" y2="53.8835" gradientUnits="userSpaceOnUse">
<stop offset="0.0277" stop-color="#FFD24D"/>
<stop offset="0.7154" stop-color="#F6BE56"/>
<stop offset="1" stop-color="#F2B45A"/>
</linearGradient>
<linearGradient id="paint16_linear_15_92" x1="363.204" y1="25.2673" x2="364.465" y2="48.7995" gradientUnits="userSpaceOnUse">
<stop offset="0.0277" stop-color="#FFD24D"/>
<stop offset="0.7154" stop-color="#F6BE56"/>
<stop offset="1" stop-color="#F2B45A"/>
</linearGradient>
<linearGradient id="paint17_linear_15_92" x1="69.7763" y1="248.875" x2="89.2917" y2="247.146" gradientUnits="userSpaceOnUse">
<stop offset="0.0277" stop-color="#FFD24D"/>
<stop offset="0.1674" stop-color="#EBC34D"/>
<stop offset="0.4544" stop-color="#B69D4D"/>
<stop offset="0.8604" stop-color="#625F4E"/>
<stop offset="1" stop-color="#44494E"/>
</linearGradient>
<linearGradient id="paint18_linear_15_92" x1="74.5743" y1="247.935" x2="104.827" y2="245.254" gradientUnits="userSpaceOnUse">
<stop offset="0.0277" stop-color="#FFD24D"/>
<stop offset="0.1674" stop-color="#EBC34D"/>
<stop offset="0.4544" stop-color="#B69D4D"/>
<stop offset="0.8604" stop-color="#625F4E"/>
<stop offset="1" stop-color="#44494E"/>
</linearGradient>
<linearGradient id="paint19_linear_15_92" x1="69.2702" y1="264.328" x2="100.333" y2="261.575" gradientUnits="userSpaceOnUse">
<stop offset="0.0277" stop-color="#FFD24D"/>
<stop offset="0.1674" stop-color="#EBC34D"/>
<stop offset="0.4544" stop-color="#B69D4D"/>
<stop offset="0.8604" stop-color="#625F4E"/>
<stop offset="1" stop-color="#44494E"/>
</linearGradient>
<linearGradient id="paint20_linear_15_92" x1="103.181" y1="314.637" x2="139.822" y2="314.637" gradientUnits="userSpaceOnUse">
<stop offset="0.0277" stop-color="#FFD24D"/>
<stop offset="0.7154" stop-color="#FFBE56"/>
<stop offset="1" stop-color="#FFB45A"/>
</linearGradient>
<linearGradient id="paint21_linear_15_92" x1="383.401" y1="180.79" x2="393.295" y2="190.438" gradientUnits="userSpaceOnUse">
<stop offset="0.0277" stop-color="#FFD24D"/>
<stop offset="0.7154" stop-color="#F6BE56"/>
<stop offset="1" stop-color="#F2B45A"/>
</linearGradient>
<linearGradient id="paint22_linear_15_92" x1="43.3895" y1="265.146" x2="422.722" y2="121.832" gradientUnits="userSpaceOnUse">
<stop offset="0.0277" stop-color="#FFD24D"/>
<stop offset="0.0356" stop-color="#F7CC4C"/>
<stop offset="0.0797" stop-color="#CEAE4A"/>
<stop offset="0.1292" stop-color="#A89348"/>
<stop offset="0.1831" stop-color="#887B45"/>
<stop offset="0.2427" stop-color="#6C6744"/>
<stop offset="0.3099" stop-color="#565742"/>
<stop offset="0.3884" stop-color="#454B41"/>
<stop offset="0.4856" stop-color="#3A4241"/>
<stop offset="0.6218" stop-color="#333D40"/>
<stop offset="1" stop-color="#313C40"/>
</linearGradient>
<linearGradient id="paint23_linear_15_92" x1="0.004927" y1="195.504" x2="450.582" y2="195.504" gradientUnits="userSpaceOnUse">
<stop stop-color="#5C5A44"/>
<stop offset="0.6103" stop-color="#3F4541"/>
<stop offset="1" stop-color="#313C40"/>
</linearGradient>
<linearGradient id="paint24_linear_15_92" x1="139.707" y1="90.3734" x2="328.143" y2="284.952" gradientUnits="userSpaceOnUse">
<stop stop-color="#313C40"/>
<stop offset="0.251" stop-color="#333E40"/>
<stop offset="0.397" stop-color="#3C4441"/>
<stop offset="0.5161" stop-color="#4A4E42"/>
<stop offset="0.6208" stop-color="#5E5D43"/>
<stop offset="0.716" stop-color="#786F44"/>
<stop offset="0.8042" stop-color="#988746"/>
<stop offset="0.8873" stop-color="#BDA249"/>
<stop offset="0.964" stop-color="#E8C14C"/>
<stop offset="1" stop-color="#FFD24D"/>
</linearGradient>
</defs>
</svg>
