<svg width="451" height="391" viewBox="0 0 451 391" fill="none" xmlns="http://www.w3.org/2000/svg">
<path d="M262.922 34.874C248.842 27.2353 231.4 22.2109 215.404 26.6838C202.988 30.156 193.618 39.204 186.541 49.3958C178.574 60.8641 172.963 73.7214 167.017 86.2518C163.374 93.9212 159.406 101.294 154.088 108.014C148.372 115.244 141.567 121.658 133.977 126.988C126.125 132.493 117.478 136.792 108.307 139.764C97.8489 143.154 86.9823 145.033 76.2517 147.403C58.6116 151.314 39.9037 157.39 28.3565 171.871C23.2477 178.274 20.2118 186.035 20.0757 194.175C19.9291 202.528 22.672 210.759 26.9956 217.908C36.8049 234.155 53.8587 243.449 71.6558 249.402C90.7092 255.775 110.82 258.808 129.475 266.365C138.793 270.143 147.712 275.096 155.103 281.867C162.431 288.587 168.095 296.767 173.131 305.202C182.626 321.133 190.268 338.504 203.951 351.606C210.264 357.652 217.812 362.544 226.333 365.035C234.897 367.527 244.047 367.527 252.746 365.72C293.627 357.213 311.822 317.028 328.3 284.032C337.513 265.589 347.731 247.636 363.256 233.492C378.247 219.838 396.139 209.421 410.115 194.675C422.531 181.583 431.869 164.814 429.681 146.463C427.598 129.021 416.469 113.59 402.818 102.673C387.093 90.1018 367.642 82.749 348.756 75.9885C338.623 72.3631 328.363 68.9829 318.522 64.6325C308.807 60.3331 299.469 55.2985 290.246 50.0903C285.839 47.5985 281.463 45.0658 277.066 42.5536C272.397 39.8882 267.549 37.5803 262.828 35.017C262.462 34.8128 262.127 35.3642 262.493 35.5685C267.204 38.1215 271.685 41.0933 276.333 43.7587C280.73 46.2709 285.106 48.8035 289.513 51.2953C298.527 56.3912 307.656 61.3135 317.13 65.5414C335.922 73.9358 356.001 79.1951 374.74 87.7325C392.213 95.6878 408.649 106.37 419.139 122.526C423.954 129.94 427.388 138.314 428.33 147.076C429.314 156.216 427.43 165.356 423.431 173.638C415.056 190.988 399.447 203.366 384.256 214.875C376.195 220.982 368.051 227.038 360.691 233.951C353.572 240.63 347.448 248.177 342.13 256.285C331.284 272.819 323.694 291.078 314.387 308.429C305.3 325.361 294.182 342.313 277.83 353.404C262.723 363.647 242.822 369.141 224.91 363.136C207.28 357.223 195.628 341.568 186.751 326.413C177.329 310.318 169.498 292.661 155.124 280.019C140.928 267.539 122.262 261.637 104.151 256.919C85.0141 251.935 65.029 247.85 48.1532 237.209C33.2665 227.824 20.8922 211.586 21.4785 193.623C22.0647 175.425 37.1399 162.629 53.0945 155.766C72.2421 147.525 93.7242 146.8 113.196 139.488C129.507 133.361 143.964 122.801 154.716 109.382C164.263 97.475 169.644 83.2902 176.355 69.8101C182.144 58.1783 188.708 46.2505 198.643 37.4475C208.903 28.3484 222.073 24.9171 235.724 26.7757C245.136 28.0523 254.086 31.3202 262.409 35.7421C262.975 36.0178 263.477 35.1804 262.922 34.874Z" fill="url(#paint0_linear_15_92)"/>
<g opacity="0.4248">
<path opacity="0.4248" d="M266.916 11.2683C251.45 2.54411 232.284 -3.19037 214.717 1.9319C201.091 5.90114 190.804 16.2375 183.041 27.8698C174.282 40.9917 168.118 55.6953 161.572 70.0213C157.56 78.8067 153.195 87.235 147.353 94.9286C141.068 103.204 133.577 110.561 125.21 116.652C116.572 122.958 107.05 127.876 96.9637 131.274C85.4699 135.152 73.5137 137.294 61.7183 140.019C42.3408 144.488 21.7768 151.427 9.08647 167.977C3.48542 175.283 0.167026 184.14 0.00613368 193.425C-0.154758 202.966 2.86197 212.353 7.59823 220.516C18.3679 239.076 37.1018 249.699 56.6502 256.494C77.6064 263.78 99.7189 267.249 120.233 275.892C130.5 280.218 140.324 285.891 148.459 293.646C156.524 301.329 162.758 310.696 168.299 320.359C178.727 338.573 187.134 358.44 202.177 373.419C209.105 380.327 217.381 385.908 226.743 388.755C236.145 391.602 246.181 391.602 255.734 389.541C300.653 379.816 320.644 333.869 338.754 296.146C348.89 275.045 360.123 254.494 377.217 238.311C393.709 222.7 413.378 210.782 428.743 193.915C442.379 178.956 452.636 159.804 450.222 138.835C447.929 118.918 435.702 101.285 420.709 88.8165C403.433 74.4497 382.054 66.0419 361.309 58.3177C350.157 54.1647 338.865 50.2975 328.035 45.3181C317.355 40.3999 307.079 34.645 296.942 28.6758C292.095 25.829 287.279 22.9312 282.452 20.0537C277.324 17.0028 272.014 14.3192 266.825 11.3907C266.473 11.1867 266.152 11.7377 266.504 11.9417C271.682 14.86 276.64 18.217 281.758 21.2577C286.585 24.1352 291.412 27.0229 296.248 29.8799C306.153 35.7062 316.189 41.3386 326.607 46.1752C347.271 55.7769 369.354 61.7869 389.958 71.5519C409.185 80.6638 427.265 92.8878 438.819 111.377C444.118 119.866 447.899 129.468 448.935 139.509C450.021 149.988 447.939 160.447 443.525 169.946C434.304 189.803 417.139 203.965 400.436 217.138C391.567 224.128 382.617 231.046 374.522 238.954C366.699 246.586 359.972 255.219 354.129 264.484C342.203 283.401 333.857 304.289 323.62 324.135C313.615 343.522 301.387 362.919 283.387 375.612C266.755 387.337 244.833 393.632 225.114 386.745C205.707 379.969 192.865 362.052 183.091 344.685C172.734 326.288 164.126 306.095 148.328 291.636C132.732 277.371 112.218 270.626 92.3179 265.239C71.2712 259.535 49.2793 254.851 30.7265 242.689C14.3356 231.944 0.710038 213.333 1.34355 192.752C1.98712 171.905 18.5892 157.232 36.1565 149.365C57.2133 139.937 80.8544 139.111 102.273 130.733C120.182 123.734 136.07 111.652 147.886 96.3265C158.384 82.7045 164.297 66.4908 171.668 51.0832C178.043 37.7674 185.263 24.125 196.194 14.0437C207.507 3.6155 222.007 -0.312927 237.06 1.82985C247.418 3.29919 257.262 7.03376 266.413 12.105C266.976 12.4009 267.459 11.5642 266.916 11.2683Z" fill="url(#paint1_linear_15_92)"/>
</g>
<path d="M342.963 235.481C354.989 222.895 370.2 213.859 383.329 202.469C394.773 192.543 405.288 179.928 407.861 164.851C410.331 150.298 404.492 135.983 395.069 124.801C384.574 112.344 369.966 104.257 354.918 97.969C338.472 91.0978 321.106 86.4215 304.977 78.8287C288.908 71.2556 274.146 61.4482 258.312 53.4895C246.317 47.4588 231.586 43.7711 218.243 47.4983C207.973 50.3654 200.01 57.5232 193.905 65.7686C186.933 75.1805 182.022 85.8778 177.051 96.3476C174.202 102.359 171.415 108.389 167.669 113.946C163.473 120.154 158.399 125.8 152.652 130.703C146.761 135.735 140.146 139.967 133.061 143.239C124.904 147.006 116.135 149.211 107.345 151.099C91.3581 154.53 74.6974 157.298 61.2729 167.046C55.6274 171.149 50.7476 176.369 47.8994 182.687C45.0512 188.994 44.4795 195.984 45.9189 202.707C49.0122 217.121 59.9356 228.728 72.8292 235.886C101.965 252.07 140.656 249.292 165.688 272.921C177.837 284.389 184.421 299.832 192.895 313.762C200.418 326.14 210.107 338.449 224.266 344.015C238.711 349.7 255.168 346.734 268.47 339.596C282.854 331.884 293.39 319.15 301.659 305.665C303.741 302.264 305.701 298.804 307.58 295.294C309.519 291.685 311.01 287.909 312.837 284.251C313.011 283.895 312.47 283.578 312.286 283.934C310.479 287.563 308.294 291.033 306.375 294.602C304.446 298.191 302.445 301.75 300.301 305.23C296.085 312.081 291.358 318.656 285.764 324.519C274.973 335.829 260.426 344.331 244.306 345.537C236.557 346.121 228.738 344.845 221.765 341.464C214.956 338.162 209.218 333.169 204.359 327.544C194.12 315.69 187.994 301.275 179.664 288.215C175.519 281.72 170.782 275.511 164.912 270.38C159.012 265.219 152.1 261.265 144.852 258.17C129.957 251.803 113.879 248.936 98.3409 244.458C82.8644 239.999 67.1327 233.622 56.7504 221.125C47.3481 209.805 42.8869 194.026 50.4822 180.67C57.8529 167.708 72.8292 160.808 86.9582 157.041C103.486 152.632 120.81 150.961 136.226 143.22C149.232 136.694 160.471 126.897 168.557 115.073C175.458 104.988 179.715 93.3421 185.309 82.5658C190.25 73.0648 195.957 63.4354 204.369 56.3962C213.087 49.0999 224.103 46.3416 235.465 47.7257C252.422 49.7821 266.755 59.5796 281.16 67.7261C288.745 72.0169 296.391 76.2285 304.303 79.9458C311.929 83.5347 319.79 86.4512 327.752 89.2491C357.378 99.6991 393.517 111.771 404.665 143.704C407.126 150.743 407.85 158.277 406.411 165.593C404.941 173.047 401.439 179.968 396.937 186.137C387.321 199.345 373.6 208.698 360.696 218.624C354.193 223.627 347.864 228.847 342.279 234.808C341.861 235.263 342.545 235.925 342.963 235.481Z" fill="url(#paint2_linear_15_92)"/>
<defs>
<linearGradient id="paint0_linear_15_92" x1="43.304" y1="264.244" x2="422.413" y2="122.792" gradientUnits="userSpaceOnUse">
<stop offset="0.0277" stop-color="#FFD24D"/>
<stop offset="0.0356" stop-color="#F7CC4C"/>
<stop offset="0.0797" stop-color="#CEAE4A"/>
<stop offset="0.1292" stop-color="#A89348"/>
<stop offset="0.1831" stop-color="#887B45"/>
<stop offset="0.2427" stop-color="#6C6744"/>
<stop offset="0.3099" stop-color="#565742"/>
<stop offset="0.3884" stop-color="#454B41"/>
<stop offset="0.4856" stop-color="#3A4241"/>
<stop offset="0.6218" stop-color="#333D40"/>
<stop offset="1" stop-color="#313C40"/>
</linearGradient>
<linearGradient id="paint1_linear_15_92" x1="0.004927" y1="195.504" x2="450.582" y2="195.504" gradientUnits="userSpaceOnUse">
<stop stop-color="#5C5A44"/>
<stop offset="0.6103" stop-color="#3F4541"/>
<stop offset="1" stop-color="#313C40"/>
</linearGradient>
<linearGradient id="paint2_linear_15_92" x1="139.707" y1="90.3734" x2="328.143" y2="284.952" gradientUnits="userSpaceOnUse">
<stop stop-color="#313C40"/>
<stop offset="0.251" stop-color="#333E40"/>
<stop offset="0.397" stop-color="#3C4441"/>
<stop offset="0.5161" stop-color="#4A4E42"/>
<stop offset="0.6208" stop-color="#5E5D43"/>
<stop offset="0.716" stop-color="#786F44"/>
<stop offset="0.8042" stop-color="#988746"/>
<stop offset="0.8873" stop-color="#BDA249"/>
<stop offset="0.964" stop-color="#E8C14C"/>
<stop offset="1" stop-color="#FFD24D"/>
</linearGradient>
</defs>
</svg>
