<svg width="47" height="47" viewBox="0 0 47 47" fill="none" xmlns="http://www.w3.org/2000/svg">
<path d="M38.2775 27.9962L25.0587 41.215C24.854 41.4204 24.6108 41.5833 24.343 41.6945C24.0752 41.8057 23.7881 41.8629 23.4982 41.8629C23.2082 41.8629 22.9211 41.8057 22.6533 41.6945C22.3855 41.5833 22.1423 41.4204 21.9376 41.215L8.71886 27.9962C8.30498 27.5823 8.07246 27.021 8.07246 26.4357C8.07246 25.8503 8.30498 25.289 8.71886 24.8751C9.13275 24.4612 9.69409 24.2287 10.2794 24.2287C10.8647 24.2287 11.4261 24.4612 11.84 24.8751L21.2969 34.332V7.34375C21.2969 6.75944 21.529 6.19907 21.9422 5.78591C22.3553 5.37274 22.9157 5.14063 23.5 5.14062C24.0843 5.14062 24.6447 5.37274 25.0578 5.78591C25.471 6.19907 25.7031 6.75944 25.7031 7.34375V34.332L35.16 24.8733C35.5739 24.4594 36.1353 24.2269 36.7206 24.2269C37.3059 24.2269 37.8672 24.4594 38.2811 24.8733C38.695 25.2872 38.9275 25.8485 38.9275 26.4338C38.9275 27.0191 38.695 27.5805 38.2811 27.9944L38.2775 27.9962Z" fill="#FDFDFD"/>
</svg>
