<svg width="40" height="41" viewBox="0 0 40 41" fill="none" xmlns="http://www.w3.org/2000/svg">
<path d="M31.8751 10.5V26.75C31.8751 27.2473 31.6775 27.7242 31.3259 28.0758C30.9742 28.4275 30.4973 28.625 30.0001 28.625C29.5028 28.625 29.0259 28.4275 28.6742 28.0758C28.3226 27.7242 28.1251 27.2473 28.1251 26.75V15.0313L11.3266 31.8266C10.9744 32.1788 10.4966 32.3767 9.99849 32.3767C9.50035 32.3767 9.02261 32.1788 8.67037 31.8266C8.31813 31.4743 8.12024 30.9966 8.12024 30.4984C8.12024 30.0003 8.31813 29.5226 8.67037 29.1703L25.4688 12.375H13.7501C13.2528 12.375 12.7759 12.1775 12.4242 11.8258C12.0726 11.4742 11.8751 10.9973 11.8751 10.5C11.8751 10.0027 12.0726 9.52581 12.4242 9.17417C12.7759 8.82254 13.2528 8.625 13.7501 8.625H30.0001C30.4973 8.625 30.9742 8.82254 31.3259 9.17417C31.6775 9.52581 31.8751 10.0027 31.8751 10.5Z" fill="#A7A7A7"/>
</svg>
