<svg width="100" height="100" viewBox="0 0 100 100" fill="none" xmlns="http://www.w3.org/2000/svg">
<g clip-path="url(#clip0_1_595)">
<path d="M49.9555 99.3596C60.4278 99.3596 68.9172 90.8701 68.9172 80.3978C68.9172 69.9255 60.4278 61.4361 49.9555 61.4361C39.4832 61.4361 30.9938 69.9255 30.9938 80.3978C30.9938 90.8701 39.4832 99.3596 49.9555 99.3596Z" fill="#FDFDFD"/>
<path fill-rule="evenodd" clip-rule="evenodd" d="M50.2673 99.277C77.3942 98.941 99.2806 76.8468 99.2806 49.6403C99.2806 22.2247 77.0561 0 49.6403 0C22.2247 0 0 22.2247 0 49.6403C0 76.8043 21.8183 98.8719 48.886 99.2748C32.2791 98.887 18.9359 85.3036 18.9359 68.6035C18.9359 51.6594 32.6718 37.9234 49.616 37.9234C66.5601 37.9234 80.2957 51.6594 80.2957 68.6035C80.2957 85.3302 66.9107 98.9302 50.2673 99.277Z" fill="#FDFDFD"/>
</g>
<defs>
<clipPath id="clip0_1_595">
<rect width="99.2806" height="100" fill="white"/>
</clipPath>
</defs>
</svg>
