<svg width="48" height="47" viewBox="0 0 48 47" fill="none" xmlns="http://www.w3.org/2000/svg">
<path d="M34.8871 29.2025C34.5845 30.6993 33.7743 32.0457 32.5933 33.0138C31.4124 33.982 29.9333 34.5125 28.4062 34.5157C24.3174 34.5113 20.3974 32.8851 17.5061 29.9939C14.6149 27.1027 12.9887 23.1826 12.9843 19.0938C12.9875 17.5667 13.518 16.0876 14.4862 14.9067C15.4544 13.7258 16.8007 12.9155 18.2976 12.613C18.7707 12.5193 19.2616 12.5836 19.6947 12.7958C20.1278 13.0081 20.4794 13.3566 20.6953 13.788L22.8029 18.0106C22.9758 18.3575 23.0541 18.7439 23.0299 19.1307C23.0057 19.5175 22.88 19.8911 22.6652 20.2137L21.101 22.5601C21.9064 24.2394 23.2606 25.5937 24.94 26.399L27.2863 24.8348C27.609 24.6201 27.9826 24.4943 28.3694 24.4701C28.7562 24.4459 29.1425 24.5242 29.4894 24.6971L33.7121 26.8048C34.1434 27.0207 34.492 27.3722 34.7042 27.8053C34.9165 28.2385 34.9807 28.7293 34.8871 29.2025ZM43.8281 23.5001C43.8288 26.8965 42.9571 30.2362 41.2965 33.1989C39.6358 36.1617 37.242 38.6482 34.3444 40.4202C31.4469 42.1921 28.1427 43.19 24.7487 43.3183C21.3547 43.4465 17.9847 42.7008 14.9617 41.1526L9.00771 43.1446C8.35955 43.363 7.66326 43.3961 6.99732 43.2401C6.33138 43.084 5.72226 42.7451 5.23861 42.2614C4.75497 41.7778 4.41602 41.1687 4.25998 40.5027C4.10394 39.8368 4.137 39.1405 4.35544 38.4923L6.34009 32.5384C4.97726 29.8689 4.23735 26.9251 4.17601 23.9285C4.11468 20.9318 4.73349 17.9603 5.98595 15.2372C7.2384 12.5142 9.09189 10.1105 11.4071 8.20694C13.7222 6.30336 16.4388 4.94942 19.3526 4.24691C22.2664 3.5444 25.3015 3.5116 28.2298 4.15099C31.1581 4.79038 33.9033 6.08531 36.2591 7.93843C38.6148 9.79154 40.5198 12.1546 41.8308 14.85C43.1418 17.5453 43.8247 20.5028 43.8281 23.5001ZM39.4218 23.5001C39.4209 21.1345 38.8759 18.8009 37.8288 16.6798C36.7818 14.5586 35.2608 12.7067 33.3835 11.2674C31.5063 9.82805 29.3231 8.83987 27.0028 8.37926C24.6826 7.91866 22.2875 7.99799 20.0028 8.6111C17.7181 9.22422 15.6051 10.3547 13.8272 11.9151C12.0493 13.4755 10.6542 15.4239 9.74976 17.6097C8.84535 19.7955 8.45589 22.1601 8.61151 24.5205C8.76713 26.8809 9.46365 29.1739 10.6472 31.222C10.8036 31.4921 10.9009 31.7923 10.9325 32.1028C10.9642 32.4133 10.9295 32.727 10.8308 33.0231L9.00771 38.4923L14.477 36.6693C14.702 36.5943 14.9375 36.5559 15.1746 36.5554C15.5616 36.5561 15.9415 36.6587 16.2762 36.8528C18.6207 38.2095 21.2812 38.9247 23.99 38.9264C26.6987 38.9282 29.3601 38.2164 31.7064 36.8629C34.0527 35.5093 36.0011 33.5616 37.3555 31.2158C38.7099 28.87 39.4226 26.2088 39.4218 23.5001Z" fill="#A7A7A7"/>
</svg>
