<?xml version="1.0" standalone="no"?>
<!DOCTYPE svg PUBLIC "-//W3C//DTD SVG 20010904//EN"
 "http://www.w3.org/TR/2001/REC-SVG-20010904/DTD/svg10.dtd">
<svg version="1.0" xmlns="http://www.w3.org/2000/svg"
 width="1024.000000pt" height="1024.000000pt" viewBox="0 0 1024.000000 1024.000000"
 preserveAspectRatio="xMidYMid meet">

<g transform="translate(0.000000,1024.000000) scale(0.100000,-0.100000)"
fill="#000000" stroke="none">
<path d="M4848 8549 c-506 -52 -1058 -324 -1425 -702 -377 -388 -621 -877
-683 -1372 -9 -72 -24 -1418 -32 -2937 -3 -606 9 -537 -113 -606 -103 -58
-395 -250 -395 -260 0 -13 162 -102 184 -102 23 0 96 41 252 141 181 117 138
118 375 -14 335 -187 503 -284 709 -407 107 -64 287 -168 400 -232 231 -130
431 -245 695 -400 194 -113 297 -168 317 -168 34 0 224 108 728 410 279 167
486 288 585 341 55 29 181 101 280 159 99 59 299 176 444 260 259 151 264 153
290 138 14 -8 73 -45 131 -82 126 -80 245 -139 281 -139 21 0 179 86 179 97 0
11 -186 128 -477 300 l-43 25 0 1673 c0 1609 -1 1678 -20 1806 -38 262 -111
494 -230 737 -359 733 -943 1165 -1785 1320 -106 20 -509 29 -647 14z m477
-219 c197 -18 405 -69 620 -153 381 -147 750 -437 964 -757 97 -145 235 -416
285 -557 42 -124 80 -288 102 -453 16 -113 17 -278 18 -1765 1 -1487 0 -1641
-15 -1656 -9 -9 -78 -51 -155 -94 -76 -43 -254 -147 -394 -230 -140 -84 -304
-180 -365 -215 -60 -34 -153 -89 -206 -121 -53 -32 -143 -83 -200 -115 -57
-32 -225 -130 -374 -219 -301 -181 -453 -265 -479 -265 -9 0 -53 21 -99 47
-202 115 -482 278 -712 413 -137 81 -387 226 -555 322 -168 97 -395 228 -505
292 -110 64 -233 133 -273 154 l-73 37 5 70 c3 39 10 774 16 1635 6 924 15
1612 21 1680 57 621 442 1243 994 1606 328 216 596 310 985 347 81 8 293 6
395 -3z"/>
<path d="M5060 6476 c-19 -13 -150 -90 -290 -171 -140 -81 -379 -222 -530
-313 -375 -226 -492 -296 -650 -384 -74 -42 -170 -99 -212 -127 l-78 -51 0
-298 c0 -164 -3 -643 -6 -1063 l-7 -764 69 -41 c38 -23 170 -100 294 -171 581
-335 768 -443 1065 -615 400 -232 399 -232 443 -224 40 6 233 114 487 271 99
62 225 137 280 167 85 47 793 466 966 571 l56 34 8 1014 c4 558 4 1036 0 1062
-4 26 -14 55 -22 63 -27 27 -98 71 -293 181 -176 100 -527 310 -813 487 -110
68 -577 335 -654 375 -54 27 -70 26 -113 -3z m194 -284 c50 -30 249 -147 441
-260 193 -112 440 -259 550 -326 110 -67 239 -144 288 -171 l87 -49 -52 -30
c-29 -16 -316 -187 -638 -379 -322 -193 -632 -378 -689 -412 l-104 -62 -81 46
c-45 26 -211 124 -371 218 -159 93 -384 225 -500 293 -213 125 -513 307 -528
320 -10 9 84 68 378 240 116 68 300 178 410 245 110 67 308 185 440 263 201
117 243 138 259 130 11 -6 61 -36 110 -66z m-1159 -1322 c39 -24 151 -89 250
-145 99 -57 290 -168 425 -248 l245 -146 2 -693 c2 -381 -1 -781 -5 -889 l-7
-196 -350 201 c-193 111 -427 246 -520 302 -94 56 -275 161 -404 235 l-234
134 6 650 c4 358 7 759 7 892 l0 242 258 -148 c141 -81 289 -167 327 -191z
m2651 238 c-1 -46 -3 -444 -4 -885 l-2 -802 -247 -147 c-504 -298 -1238 -737
-1251 -747 -10 -8 -12 170 -10 893 l3 902 140 80 c77 44 205 119 285 167 358
217 1072 631 1080 626 4 -2 6 -41 6 -87z"/>
</g>
</svg>
