<?xml version="1.0" standalone="no"?>
<!DOCTYPE svg PUBLIC "-//W3C//DTD SVG 20010904//EN"
 "http://www.w3.org/TR/2001/REC-SVG-20010904/DTD/svg10.dtd">
<svg version="1.0" xmlns="http://www.w3.org/2000/svg"
 width="400.000000pt" height="400.000000pt" viewBox="0 0 400.000000 400.000000"
 preserveAspectRatio="xMidYMid meet">

<g transform="translate(0.000000,400.000000) scale(0.100000,-0.100000)"
fill="#000000" stroke="none">
<path d="M0 2000 l0 -2000 2000 0 2000 0 0 2000 0 2000 -2000 0 -2000 0 0
-2000z m2070 1060 c0 -17 7 -20 45 -20 41 0 45 -2 45 -25 0 -20 5 -25 25 -25
20 0 25 -5 25 -25 0 -18 5 -25 20 -25 13 0 20 -7 20 -20 0 -15 7 -20 25 -20
24 0 25 -2 25 -70 0 -63 2 -70 20 -70 19 0 20 -7 20 -115 l0 -115 25 0 25 0 0
-185 0 -185 25 0 25 0 0 -115 c0 -108 1 -115 20 -115 19 0 20 -7 20 -90 0 -89
0 -90 25 -90 23 0 25 -4 25 -45 0 -38 3 -45 20 -45 17 0 20 -7 20 -50 0 -47 2
-50 25 -50 23 0 25 -4 25 -45 0 -41 2 -45 25 -45 18 0 25 -5 25 -20 0 -13 7
-20 20 -20 15 0 20 -7 20 -25 l0 -25 -300 0 -300 0 0 25 0 25 -115 0 -115 0 0
-25 c0 -25 -1 -25 -90 -25 l-90 0 0 45 0 45 -70 0 c-68 0 -70 1 -70 25 0 18
-5 25 -20 25 -19 0 -20 7 -20 90 0 89 0 90 -25 90 l-25 0 0 160 0 160 -25 0
c-20 0 -25 5 -25 25 0 18 -5 25 -20 25 -15 0 -20 7 -20 25 0 20 -5 25 -25 25
-18 0 -25 5 -25 20 0 13 -7 20 -20 20 -15 0 -20 7 -20 25 0 20 -5 25 -25 25
-25 0 -25 1 -25 90 0 89 0 90 25 90 23 0 25 4 25 45 0 38 3 45 20 45 15 0 20
7 20 25 0 20 5 25 25 25 20 0 25 5 25 25 0 24 2 25 70 25 l70 0 0 115 c0 108
1 115 20 115 17 0 20 7 20 45 0 41 2 45 25 45 18 0 25 5 25 20 0 13 7 20 20
20 15 0 20 7 20 25 0 20 5 25 25 25 20 0 25 5 25 25 0 23 4 25 45 25 38 0 45
3 45 20 0 19 7 20 140 20 133 0 140 -1 140 -20z m370 -2025 c0 -25 1 -25 90
-25 83 0 90 -1 90 -20 0 -17 7 -20 45 -20 l45 0 0 -50 0 -50 -45 0 c-38 0 -45
-3 -45 -20 0 -19 -7 -20 -90 -20 -89 0 -90 0 -90 -25 l0 -25 -300 0 -300 0 0
25 c0 25 0 25 -95 25 -88 0 -95 1 -95 20 0 17 -7 20 -45 20 l-45 0 0 50 0 50
45 0 c38 0 45 3 45 20 0 19 7 20 95 20 95 0 95 0 95 25 l0 25 300 0 300 0 0
-25z"/>
<path d="M1800 3055 c0 -13 21 -15 130 -15 109 0 130 2 130 15 0 13 -21 15
-130 15 -109 0 -130 -2 -130 -15z"/>
<path d="M1708 3008 c-2 -15 -11 -24 -25 -26 -15 -2 -23 -10 -23 -24 0 -11 -8
-22 -19 -25 -11 -3 -21 -13 -24 -24 -3 -11 -14 -19 -26 -19 -18 0 -21 -6 -21
-41 0 -32 -4 -42 -20 -46 -19 -5 -20 -14 -20 -119 l0 -114 -69 0 c-65 0 -70
-2 -73 -22 -2 -15 -11 -24 -25 -26 -15 -2 -23 -10 -23 -24 0 -11 -8 -22 -19
-25 -15 -4 -21 -15 -23 -47 -2 -34 -7 -42 -25 -44 -22 -3 -23 -8 -23 -82 0
-74 1 -79 23 -82 14 -2 23 -11 25 -25 2 -15 10 -23 23 -23 12 0 19 -7 19 -20
0 -13 7 -20 20 -20 11 0 20 7 20 15 0 11 12 15 45 15 l45 0 0 -45 c0 -38 -3
-45 -20 -45 -13 0 -20 -7 -20 -20 0 -15 7 -20 25 -20 l25 0 0 -160 c0 -153 1
-160 20 -160 19 0 20 7 20 225 l0 225 -25 0 c-20 0 -25 5 -25 25 0 24 -2 24
-87 27 l-88 3 -3 83 c-3 76 -1 84 17 89 15 4 21 15 23 47 2 33 7 42 25 44 14
2 23 11 25 25 3 20 9 22 90 25 l87 3 3 137 c3 133 4 137 26 140 19 3 22 10 22
44 0 31 4 41 19 45 11 3 21 13 24 24 3 11 14 19 25 19 14 0 22 8 24 23 2 18
10 23 46 25 34 3 42 7 42 23 0 16 -7 19 -39 19 -33 0 -40 -4 -43 -22z"/>
<path d="M2070 3010 c0 -17 7 -20 40 -20 33 0 40 3 40 20 0 17 -7 20 -40 20
-33 0 -40 -3 -40 -20z"/>
<path d="M2160 2960 c0 -13 7 -20 20 -20 13 0 20 7 20 20 0 13 -7 20 -20 20
-13 0 -20 -7 -20 -20z"/>
<path d="M2210 2915 c0 -8 7 -15 15 -15 8 0 15 7 15 15 0 8 -7 15 -15 15 -8 0
-15 -7 -15 -15z"/>
<path d="M2250 2825 c0 -58 2 -65 20 -65 18 0 20 7 20 65 0 58 -2 65 -20 65
-18 0 -20 -7 -20 -65z"/>
<path d="M1650 2735 c0 -18 -5 -25 -20 -25 -18 0 -20 -7 -20 -65 l0 -65 45 0
45 0 0 90 c0 89 0 90 -25 90 -20 0 -25 -5 -25 -25z"/>
<path d="M1840 2670 l0 -90 70 0 70 0 0 45 c0 41 -2 45 -25 45 -18 0 -25 5
-25 20 0 15 -7 20 -25 20 -20 0 -25 5 -25 25 0 18 -5 25 -20 25 -19 0 -20 -7
-20 -90z"/>
<path d="M2300 2640 c0 -91 3 -110 15 -110 12 0 15 19 15 110 0 91 -3 110 -15
110 -12 0 -15 -19 -15 -110z"/>
<path d="M1980 2505 c0 -20 -5 -25 -25 -25 -18 0 -25 -5 -25 -20 0 -15 -7 -20
-25 -20 -20 0 -25 -5 -25 -25 0 -18 -5 -25 -20 -25 -18 0 -20 -7 -20 -70 0
-63 2 -70 20 -70 17 0 20 -7 20 -45 0 -41 2 -45 25 -45 23 0 25 -4 25 -45 0
-41 2 -45 25 -45 23 0 25 -4 25 -45 0 -38 3 -45 20 -45 15 0 20 -7 20 -25 0
-20 5 -25 25 -25 18 0 25 -5 25 -20 0 -13 7 -20 20 -20 15 0 20 -7 20 -25 0
-20 5 -25 25 -25 20 0 25 5 25 25 0 20 -5 25 -25 25 l-25 0 0 115 c0 108 -1
115 -20 115 -13 0 -20 7 -20 20 0 15 -7 20 -25 20 -23 0 -25 4 -25 45 0 38 -3
45 -20 45 -15 0 -20 7 -20 25 0 23 -3 25 -50 25 l-50 0 0 45 c0 41 2 45 25 45
20 0 25 5 25 25 0 20 5 25 25 25 18 0 25 5 25 20 0 19 7 20 90 20 83 0 90 -1
90 -20 0 -15 7 -20 25 -20 20 0 25 -5 25 -25 0 -18 5 -25 20 -25 15 0 20 7 20
25 0 18 -5 25 -20 25 -13 0 -20 7 -20 20 0 15 -7 20 -25 20 -20 0 -25 5 -25
25 0 25 -1 25 -90 25 -89 0 -90 0 -90 -25z m0 -300 c0 -38 3 -45 20 -45 13 0
20 -7 20 -20 0 -15 7 -20 25 -20 24 0 25 -2 25 -70 0 -68 -1 -70 -25 -70 -23
0 -25 4 -25 45 0 38 -3 45 -20 45 -17 0 -20 7 -20 45 0 41 -2 45 -25 45 -23 0
-25 4 -25 45 0 41 2 45 25 45 23 0 25 -4 25 -45z"/>
<path d="M2340 2340 c0 -173 1 -180 20 -180 19 0 20 7 20 180 0 173 -1 180
-20 180 -19 0 -20 -7 -20 -180z"/>
<path d="M1700 2460 c0 -17 7 -20 45 -20 38 0 45 3 45 20 0 17 -7 20 -45 20
-38 0 -45 -3 -45 -20z"/>
<path d="M2390 2040 c0 -103 1 -110 20 -110 19 0 20 7 20 110 0 103 -1 110
-20 110 -19 0 -20 -7 -20 -110z"/>
<path d="M1390 2100 c0 -11 7 -20 15 -20 8 0 15 9 15 20 0 11 -7 20 -15 20 -8
0 -15 -9 -15 -20z"/>
<path d="M2440 1835 c0 -69 3 -85 15 -85 12 0 15 16 15 85 0 69 -3 85 -15 85
-12 0 -15 -16 -15 -85z"/>
<path d="M2480 1700 c0 -33 3 -40 20 -40 17 0 20 7 20 40 0 33 -3 40 -20 40
-17 0 -20 -7 -20 -40z"/>
<path d="M1530 1615 c0 -78 2 -85 20 -85 15 0 20 -7 20 -25 0 -24 2 -25 70
-25 l70 0 0 -45 0 -45 80 0 c79 0 80 0 80 25 l0 25 120 0 c100 0 120 3 120 15
0 12 -19 15 -115 15 l-115 0 0 25 c0 20 5 25 25 25 18 0 25 5 25 20 0 15 -7
20 -25 20 -20 0 -25 5 -25 25 0 18 -5 25 -20 25 -15 0 -20 7 -20 25 l0 25
-115 0 -115 0 0 -25 c0 -20 -5 -25 -25 -25 -23 0 -25 4 -25 45 0 33 -4 45 -15
45 -12 0 -15 -16 -15 -85z m260 -50 l0 -45 -90 0 -90 0 0 45 0 45 90 0 90 0 0
-45z m90 -25 c0 -13 -7 -20 -20 -20 -13 0 -20 7 -20 20 0 13 7 20 20 20 13 0
20 -7 20 -20z m-40 -90 c0 -17 -7 -20 -45 -20 -38 0 -45 3 -45 20 0 17 7 20
45 20 38 0 45 -3 45 -20z"/>
<path d="M2530 1605 c0 -33 4 -45 15 -45 11 0 15 12 15 45 0 33 -4 45 -15 45
-11 0 -15 -12 -15 -45z"/>
<path d="M2570 1510 c0 -33 3 -40 20 -40 17 0 20 7 20 40 0 33 -3 40 -20 40
-17 0 -20 -7 -20 -40z"/>
<path d="M2620 1445 c0 -13 -34 -15 -250 -15 -243 0 -250 -1 -250 -20 0 -20 7
-20 290 -20 251 0 290 2 290 15 0 8 -9 15 -20 15 -13 0 -20 7 -20 20 0 13 -7
20 -20 20 -11 0 -20 -7 -20 -15z"/>
<path d="M1850 1025 c0 -25 0 -25 -95 -25 -88 0 -95 -1 -95 -20 0 -17 -7 -20
-45 -20 l-45 0 0 -40 0 -40 45 0 c38 0 45 -3 45 -20 0 -19 7 -20 95 -20 95 0
95 0 95 -25 l0 -25 290 0 290 0 0 25 c0 25 1 25 90 25 83 0 90 1 90 20 0 17 7
20 45 20 l45 0 0 40 0 40 -45 0 c-38 0 -45 3 -45 20 0 19 -7 20 -90 20 -89 0
-90 0 -90 25 l0 25 -290 0 -290 0 0 -25z"/>
</g>
</svg>
