<?xml version="1.0" standalone="no"?>
<!DOCTYPE svg PUBLIC "-//W3C//DTD SVG 20010904//EN"
 "http://www.w3.org/TR/2001/REC-SVG-20010904/DTD/svg10.dtd">
<svg version="1.0" xmlns="http://www.w3.org/2000/svg"
 width="334.000000pt" height="294.000000pt" viewBox="0 0 334.000000 294.000000"
 preserveAspectRatio="xMidYMid meet">

<g transform="translate(0.000000,294.000000) scale(0.100000,-0.100000)"
fill="#000000" stroke="none">
<path d="M1533 2842 c-154 -2 -183 -5 -183 -17 0 -13 27 -15 174 -15 96 0 181
-3 190 -6 11 -4 16 0 16 14 0 12 -3 22 -7 24 -5 2 -90 2 -190 0z"/>
<path d="M1260 2811 c-52 -5 -65 -9 -66 -24 -1 -12 -1 -13 3 -2 3 11 20 15 69
15 36 0 64 4 64 10 0 6 -1 9 -2 8 -2 -1 -32 -4 -68 -7z"/>
<path d="M1884 2760 c1 -29 5 -35 24 -36 17 -1 18 -1 3 3 -14 3 -21 15 -24 36
-4 31 -4 31 -3 -3z"/>
<path d="M1210 2755 c0 -25 2 -26 57 -23 49 3 56 6 59 26 4 21 0 22 -56 22
-58 0 -60 -1 -60 -25z"/>
<path d="M1752 2755 c-2 -24 0 -25 58 -25 57 0 60 1 60 25 0 24 -3 25 -58 25
-54 0 -58 -1 -60 -25z"/>
<path d="M1188 2742 c-4 -12 -2 -24 2 -27 13 -8 18 8 10 29 -6 19 -7 19 -12
-2z"/>
<path d="M1117 2723 c-4 -3 -7 -19 -7 -34 0 -23 -5 -28 -27 -31 -24 -3 -28 -8
-31 -40 -2 -21 1 -38 7 -38 6 0 7 15 4 35 -5 33 -4 35 23 35 26 -1 27 -2 12
-14 -21 -16 -23 -36 -4 -36 17 0 27 31 29 87 1 24 2 43 1 43 0 0 -4 -3 -7 -7z"/>
<path d="M1140 2686 c0 -21 5 -26 26 -26 21 0 25 4 22 23 -2 14 -11 23 -25 25
-19 3 -23 -1 -23 -22z"/>
<path d="M1892 2683 c2 -19 9 -27 26 -28 18 -1 22 3 22 27 0 23 -4 28 -26 28
-22 0 -25 -4 -22 -27z"/>
<path d="M1967 2616 c-3 -8 -3 -16 0 -19 9 -10 33 5 33 19 0 18 -26 18 -33 0z"/>
<path d="M2094 2490 c0 -58 1 -81 3 -52 2 28 2 76 0 105 -2 28 -3 5 -3 -53z"/>
<path d="M1000 2515 l0 -55 -42 -1 -43 -1 40 -8 c22 -4 41 -4 43 1 2 5 15 9
28 9 22 0 24 4 24 55 0 52 -1 55 -25 55 -24 0 -25 -3 -25 -55z"/>
<path d="M2026 2477 c1 -90 2 -92 25 -92 23 0 24 2 27 93 l3 92 -28 0 -28 0 1
-93z"/>
<path d="M938 2268 l-3 -173 -102 -3 c-102 -3 -103 -3 -103 -27 l0 -25 125 0
125 0 0 200 c0 193 -1 200 -20 200 -19 0 -20 -8 -22 -172z"/>
<path d="M1118 2343 c-3 -33 -6 -38 -28 -38 -25 0 -25 -1 -28 -97 l-3 -98 66
0 65 0 0 135 0 135 -34 0 c-33 0 -35 -2 -38 -37z"/>
<path d="M1404 2367 c-2 -7 -3 -67 -2 -133 l3 -119 105 0 105 0 -2 60 c-1 33
-2 62 -2 65 -1 3 -16 6 -33 5 -29 0 -33 4 -38 30 -4 26 -10 30 -43 33 -35 3
-37 5 -37 38 0 30 -3 34 -25 34 -14 0 -28 -6 -31 -13z"/>
<path d="M2152 2360 c0 -14 2 -19 5 -12 2 6 2 18 0 25 -3 6 -5 1 -5 -13z"/>
<path d="M2100 2200 c0 -153 1 -160 20 -160 19 0 20 7 20 160 0 153 -1 160
-20 160 -19 0 -20 -7 -20 -160z"/>
<path d="M2154 2185 c0 -71 1 -99 3 -62 2 37 2 96 0 130 -2 34 -3 4 -3 -68z"/>
<path d="M906 2125 c-3 -8 -1 -15 4 -15 6 0 10 7 10 15 0 8 -2 15 -4 15 -2 0
-6 -7 -10 -15z"/>
<path d="M637 2033 c-4 -3 -7 -26 -7 -50 0 -36 -3 -43 -20 -43 -17 0 -19 -6
-18 -55 1 -46 5 -55 20 -55 15 0 18 8 18 55 0 30 4 55 9 55 5 0 6 21 3 46 l-5
47 46 -5 c26 -3 44 -2 41 3 -6 10 -78 12 -87 2z"/>
<path d="M1620 1995 l0 -35 130 0 130 0 0 35 0 35 -130 0 -130 0 0 -35z"/>
<path d="M2166 2012 c-3 -3 -6 -124 -6 -269 l0 -263 25 0 25 0 0 264 c0 253
-1 264 -19 269 -11 3 -22 2 -25 -1z"/>
<path d="M657 2003 c-17 -16 -6 -43 16 -43 30 0 36 6 30 31 -5 18 -33 26 -46
12z"/>
<path d="M571 1914 c-1 -57 -15 -81 -51 -86 -23 -3 -25 -8 -26 -53 l-1 -50 4
49 4 48 43 -4 42 -5 -4 61 c-4 83 -9 101 -11 40z"/>
<path d="M1197 1953 c-4 -3 -7 -17 -7 -30 0 -22 3 -23 70 -23 l70 0 0 30 0 30
-63 0 c-35 0 -67 -3 -70 -7z"/>
<path d="M1908 1953 c-11 -3 -18 -14 -18 -29 0 -21 5 -24 36 -24 33 0 35 2 32
27 -3 28 -17 35 -50 26z"/>
<path d="M1542 1928 c2 -18 11 -24 36 -26 29 -3 32 -1 32 22 0 23 -4 26 -36
26 -31 0 -35 -3 -32 -22z"/>
<path d="M1970 1863 c0 -29 3 -33 26 -33 22 0 25 4 22 32 -2 24 -8 32 -25 33
-20 1 -23 -3 -23 -32z"/>
<path d="M1470 1860 c0 -27 3 -30 30 -30 17 0 30 3 31 8 6 54 7 52 -28 52 -30
0 -33 -3 -33 -30z"/>
<path d="M1410 1721 l0 -100 28 -3 c26 -3 27 -5 30 -70 l3 -68 34 0 34 0 3 68
3 67 33 3 c28 3 32 7 32 33 l0 29 -75 0 -75 0 0 70 c0 68 -1 70 -25 70 -25 0
-25 0 -25 -99z"/>
<path d="M520 1685 l0 -115 25 0 c14 0 25 -4 25 -10 0 -5 -8 -10 -17 -10 -15
0 -14 -2 3 -14 17 -13 20 -12 27 7 5 13 4 23 -2 25 -7 2 -11 47 -11 118 l0
114 -25 0 -25 0 0 -115z"/>
<path d="M493 1640 c0 -47 2 -66 4 -42 2 23 2 61 0 85 -2 23 -4 4 -4 -43z"/>
<path d="M1620 1545 c0 -63 1 -65 25 -65 24 0 25 2 25 65 0 63 -1 65 -25 65
-24 0 -25 -2 -25 -65z"/>
<path d="M594 1535 c-10 -25 4 -45 28 -42 18 1 23 -4 28 -28 3 -16 9 -29 13
-27 4 1 16 2 27 2 13 0 20 7 20 20 0 18 7 20 65 20 l65 0 0 35 0 35 -120 0
c-98 0 -122 -3 -126 -15z"/>
<path d="M613 1447 c18 -19 47 -42 65 -51 31 -16 32 -16 32 4 0 16 -7 20 -34
20 -30 0 -35 3 -38 28 -2 21 -9 28 -30 30 l-27 3 32 -34z"/>
<path d="M2258 1473 c12 -2 30 -2 40 0 9 3 -1 5 -23 4 -22 0 -30 -2 -17 -4z"/>
<path d="M850 1405 l0 -65 -31 0 c-27 0 -30 -3 -27 -27 2 -16 8 -27 15 -26 7
2 24 -2 38 -7 l26 -10 -1 -208 c-2 -287 -4 -264 23 -260 l22 3 3 333 2 332
-35 0 -35 0 0 -65z"/>
<path d="M1544 1408 l1 -62 33 -2 32 -2 0 64 0 64 -33 0 -34 0 1 -62z"/>
<path d="M1680 1445 c0 -22 4 -25 35 -25 31 0 35 3 35 25 0 22 -4 25 -35 25
-31 0 -35 -3 -35 -25z"/>
<path d="M2240 1295 l0 -166 23 3 c22 3 22 5 22 163 0 158 0 160 -22 163 l-23
3 0 -166z"/>
<path d="M730 1385 c0 -18 5 -25 20 -25 15 0 20 7 20 25 0 18 -5 25 -20 25
-15 0 -20 -7 -20 -25z"/>
<path d="M1750 1363 c2 -26 2 -74 1 -105 l-1 -58 -35 0 c-33 0 -35 -2 -35 -35
0 -33 2 -35 35 -35 32 0 35 -2 35 -30 0 -26 3 -30 29 -30 l30 0 -2 168 -2 167
-28 3 c-29 3 -29 3 -27 -45z"/>
<path d="M730 1336 c0 -2 9 -6 20 -9 11 -3 20 -1 20 4 0 5 -9 9 -20 9 -11 0
-20 -2 -20 -4z"/>
<path d="M1620 1275 c0 -63 1 -65 25 -65 24 0 25 2 25 65 0 63 -1 65 -25 65
-24 0 -25 -2 -25 -65z"/>
<path d="M815 1261 c19 -8 20 -20 25 -242 5 -214 6 -234 23 -235 12 -1 13 0 2
3 -12 4 -15 41 -17 241 l-3 237 -25 2 c-22 2 -23 2 -5 -6z"/>
<path d="M2310 985 c0 -118 1 -125 20 -125 19 0 20 7 20 125 0 118 -1 125 -20
125 -19 0 -20 -7 -20 -125z"/>
<path d="M1822 1062 c-7 -2 -12 -17 -12 -33 0 -26 3 -29 35 -29 32 0 35 3 35
29 0 22 -5 30 -23 33 -12 2 -28 3 -35 0z"/>
<path d="M2370 870 c0 -5 5 -10 11 -10 5 0 7 5 4 10 -3 6 -8 10 -11 10 -2 0
-4 -4 -4 -10z"/>
<path d="M2370 786 c0 -60 5 -68 35 -56 18 7 21 16 19 56 -2 45 -4 49 -28 52
-25 3 -26 2 -26 -52z"/>
<path d="M940 655 l0 -125 29 0 c27 0 30 -4 33 -36 l3 -36 100 -2 100 -1 3
-67 3 -68 113 0 114 0 6 34 c4 22 13 36 26 39 11 3 91 5 178 6 132 0 157 2
160 15 3 13 -21 16 -170 18 l-173 3 -3 38 c-3 34 -6 37 -33 37 -28 0 -30 2
-27 33 2 27 7 32 28 32 21 0 26 6 28 33 3 30 1 32 -27 32 -29 0 -31 2 -31 40
l0 40 -170 0 -170 0 0 -35 0 -35 135 0 135 0 0 -70 0 -71 -137 3 -138 3 -3 62
c-3 62 -3 62 -35 65 l-32 3 -3 68 c-3 59 -5 67 -22 67 -19 0 -20 -8 -20 -125z
m465 -250 c0 -30 0 -30 -64 -33 -69 -3 -81 4 -73 44 4 24 7 25 71 22 l66 -3 0
-30z"/>
<path d="M2504 645 l1 -70 37 -3 c24 -2 38 -9 41 -20 4 -15 5 -15 6 1 1 18 -4
21 -51 31 -25 6 -27 10 -31 69 l-4 62 1 -70z"/>
<path d="M2450 634 c0 -57 2 -65 18 -62 13 3 17 14 18 53 1 60 -3 75 -22 75
-11 0 -14 -16 -14 -66z"/>
<path d="M1470 547 c0 -18 7 -27 26 -31 31 -8 47 4 42 30 -2 13 -13 20 -36 22
-28 3 -32 0 -32 -21z"/>
<path d="M2510 495 c0 -52 1 -55 25 -55 24 0 25 3 25 55 0 52 -1 55 -25 55
-24 0 -25 -3 -25 -55z"/>
<path d="M2580 458 c0 -9 5 -20 10 -23 13 -8 13 5 0 25 -8 13 -10 13 -10 -2z"/>
<path d="M1082 433 l107 -4 4 -49 4 -50 -1 52 -1 53 -110 1 -110 0 107 -3z"/>
<path d="M2654 400 c1 -19 7 -26 28 -28 23 -3 28 -9 31 -40 l4 -37 -1 40 c-1
36 -4 40 -28 43 -18 2 -28 10 -31 25 -3 18 -4 17 -3 -3z"/>
<path d="M2587 414 c-4 -4 -7 -16 -7 -26 0 -17 -18 -18 -375 -18 l-375 0 0
-25 0 -25 436 0 c409 0 435 1 432 18 -2 10 -14 18 -30 20 -21 3 -27 9 -30 30
-3 26 -34 42 -51 26z"/>
<path d="M1464 366 c-3 -8 -4 -27 -1 -43 3 -23 4 -22 6 10 l1 37 158 -4 c91
-3 163 -1 172 4 10 6 -44 10 -158 10 -140 0 -174 -3 -178 -14z"/>
<path d="M2238 289 c14 -5 56 -5 105 0 l82 8 -105 1 c-74 1 -98 -2 -82 -9z"/>
</g>
</svg>
