<?xml version="1.0" standalone="no"?>
<!DOCTYPE svg PUBLIC "-//W3C//DTD SVG 20010904//EN"
 "http://www.w3.org/TR/2001/REC-SVG-20010904/DTD/svg10.dtd">
<svg version="1.0" xmlns="http://www.w3.org/2000/svg"
 width="334.000000pt" height="294.000000pt" viewBox="0 0 334.000000 294.000000"
 preserveAspectRatio="xMidYMid meet">

<g transform="translate(0.000000,294.000000) scale(0.100000,-0.100000)"
fill="#000000" stroke="none">
<path d="M1520 2934 c-358 -46 -638 -181 -886 -428 -221 -221 -349 -462 -410
-771 -25 -125 -25 -405 0 -530 61 -309 189 -550 410 -771 221 -221 462 -349
771 -410 125 -25 405 -25 530 0 191 38 380 113 535 213 l75 48 -310 5 -310 5
-3 38 -3 37 -172 -2 -172 -3 -3 -38 -3 -38 -132 3 -131 3 -1 65 0 65 -107 3
-108 3 0 34 c0 29 -4 34 -27 37 l-28 3 -3 115 c-3 147 -4 155 -22 156 -53 3
-49 -15 -52 242 l-3 237 -25 3 c-34 5 -50 20 -50 48 0 16 -7 24 -22 26 -17 2
-25 13 -32 41 -9 33 -13 37 -42 37 -28 0 -33 4 -36 28 -2 21 -9 28 -32 30 -27
3 -28 5 -23 48 2 24 1 44 -4 44 -5 0 -9 52 -9 115 l0 115 -25 0 -25 0 0 -115
0 -115 25 0 c14 0 25 -4 25 -10 0 -11 -15 -12 -47 -4 -22 6 -23 10 -23 136 l0
131 43 -5 42 -5 -3 73 -4 74 26 0 c14 0 26 -4 26 -10 0 -5 4 -10 9 -10 5 0 6
21 3 46 l-5 47 47 -5 c38 -5 44 -3 36 8 -7 7 -10 25 -8 41 3 26 7 28 51 31 28
2 47 -1 47 -7 0 -6 -18 -11 -40 -11 -36 0 -40 -2 -40 -25 l0 -25 125 0 125 0
0 200 c0 193 -1 200 -20 200 -19 0 -20 -8 -22 -172 l-3 -173 -30 -2 c-29 -3
-29 -2 -7 9 25 13 24 5 22 202 l-2 149 41 -6 c23 -3 41 -1 41 4 0 5 -4 9 -9 9
-6 0 -9 28 -8 63 l2 62 42 -1 41 -1 -5 34 c-5 31 -4 33 23 33 26 -1 27 -2 12
-14 -21 -16 -23 -36 -4 -36 17 0 28 32 30 84 1 33 5 39 25 43 13 2 29 -2 36
-7 17 -14 25 -1 15 25 -16 44 -2 55 66 55 l64 0 0 30 0 30 210 0 210 0 0 -30
0 -30 64 0 65 0 3 -37 c3 -36 5 -38 38 -38 33 0 35 -2 38 -37 3 -35 6 -38 33
-38 26 0 29 -3 29 -30 0 -28 3 -30 35 -30 l34 0 3 -102 3 -103 28 -3 c20 -3
27 -9 28 -25 0 -12 1 -89 2 -172 l2 -150 37 -3 38 -3 2 -277 3 -277 38 -3 38
-3 -2 -167 -1 -167 29 -5 28 -5 0 -125 c1 -69 4 -131 9 -138 4 -6 20 -12 36
-12 29 0 29 -1 32 -62 3 -60 4 -63 30 -66 26 -3 27 -5 30 -75 l3 -72 38 -3
c39 -3 39 -3 37 -45 -6 -110 -7 -110 70 -29 173 183 301 441 356 717 25 125
25 405 0 530 -61 309 -189 550 -410 771 -220 220 -464 350 -766 409 -82 16
-347 28 -420 19z"/>
<path d="M1643 2832 c-154 -2 -183 -5 -183 -17 0 -13 27 -15 174 -15 96 0 181
-3 190 -6 11 -4 16 0 16 14 0 12 -3 22 -7 24 -5 2 -90 2 -190 0z"/>
<path d="M1320 2745 c0 -25 2 -26 57 -23 49 3 56 6 59 26 4 21 0 22 -56 22
-58 0 -60 -1 -60 -25z"/>
<path d="M1862 2745 c-2 -24 0 -25 58 -25 57 0 60 1 60 25 0 24 -3 25 -58 25
-54 0 -58 -1 -60 -25z"/>
<path d="M1250 2676 c0 -21 5 -26 26 -26 21 0 25 4 22 23 -2 14 -11 23 -25 25
-19 3 -23 -1 -23 -22z"/>
<path d="M2002 2673 c2 -19 9 -27 26 -28 18 -1 22 3 22 27 0 23 -4 28 -26 28
-22 0 -25 -4 -22 -27z"/>
<path d="M2077 2606 c-3 -8 -3 -16 0 -19 9 -10 33 5 33 19 0 18 -26 18 -33 0z"/>
<path d="M1110 2505 c0 -52 1 -55 25 -55 24 0 25 3 25 55 0 52 -1 55 -25 55
-24 0 -25 -3 -25 -55z"/>
<path d="M2136 2467 c1 -90 2 -92 25 -92 23 0 24 2 27 93 l3 92 -28 0 -28 0 1
-93z"/>
<path d="M1228 2333 c-3 -33 -6 -38 -28 -38 -25 0 -25 -1 -28 -97 l-3 -98 66
0 65 0 0 135 0 135 -34 0 c-33 0 -35 -2 -38 -37z"/>
<path d="M1514 2357 c-2 -7 -3 -67 -2 -133 l3 -119 105 0 105 0 -2 60 c-1 33
-2 62 -2 65 -1 3 -16 6 -33 5 -29 0 -33 4 -38 30 -4 26 -10 30 -43 33 -35 3
-37 5 -37 38 0 30 -3 34 -25 34 -14 0 -28 -6 -31 -13z"/>
<path d="M2210 2190 c0 -153 1 -160 20 -160 19 0 20 7 20 160 0 153 -1 160
-20 160 -19 0 -20 -7 -20 -160z"/>
<path d="M1730 1985 l0 -35 130 0 130 0 0 35 0 35 -130 0 -130 0 0 -35z"/>
<path d="M2276 2002 c-3 -3 -6 -124 -6 -269 l0 -263 25 0 25 0 0 264 c0 253
-1 264 -19 269 -11 3 -22 2 -25 -1z"/>
<path d="M767 1993 c-17 -16 -6 -43 16 -43 30 0 36 6 30 31 -5 18 -33 26 -46
12z"/>
<path d="M1307 1943 c-4 -3 -7 -17 -7 -30 0 -22 3 -23 70 -23 l70 0 0 30 0 30
-63 0 c-35 0 -67 -3 -70 -7z"/>
<path d="M2018 1943 c-11 -3 -18 -14 -18 -29 0 -21 5 -24 36 -24 33 0 35 2 32
27 -3 28 -17 35 -50 26z"/>
<path d="M1652 1918 c2 -18 11 -24 36 -26 29 -3 32 -1 32 22 0 23 -4 26 -36
26 -31 0 -35 -3 -32 -22z"/>
<path d="M702 1875 c1 -46 5 -55 20 -55 15 0 18 8 18 55 0 48 -2 55 -20 55
-17 0 -19 -6 -18 -55z"/>
<path d="M2080 1853 c0 -29 3 -33 26 -33 22 0 25 4 22 32 -2 24 -8 32 -25 33
-20 1 -23 -3 -23 -32z"/>
<path d="M1580 1850 c0 -27 3 -30 30 -30 17 0 30 3 31 8 6 54 7 52 -28 52 -30
0 -33 -3 -33 -30z"/>
<path d="M1520 1711 l0 -100 28 -3 c26 -3 27 -5 30 -70 l3 -68 34 0 34 0 3 68
3 67 33 3 c28 3 32 7 32 33 l0 29 -75 0 -75 0 0 70 c0 68 -1 70 -25 70 -25 0
-25 0 -25 -99z"/>
<path d="M1730 1535 c0 -63 1 -65 25 -65 24 0 25 2 25 65 0 63 -1 65 -25 65
-24 0 -25 -2 -25 -65z"/>
<path d="M704 1525 c-10 -25 4 -45 28 -42 18 1 23 -4 28 -28 3 -16 9 -29 13
-27 4 1 16 2 27 2 13 0 20 7 20 20 0 18 7 20 65 20 l65 0 0 35 0 35 -120 0
c-98 0 -122 -3 -126 -15z"/>
<path d="M960 1395 l0 -65 -31 0 c-27 0 -30 -3 -27 -27 2 -16 8 -27 15 -26 7
2 24 -2 38 -7 l26 -10 -1 -208 c-2 -287 -4 -264 23 -260 l22 3 3 333 2 332
-35 0 -35 0 0 -65z"/>
<path d="M1654 1398 l1 -62 33 -2 32 -2 0 64 0 64 -33 0 -34 0 1 -62z"/>
<path d="M1790 1435 c0 -22 4 -25 35 -25 31 0 35 3 35 25 0 22 -4 25 -35 25
-31 0 -35 -3 -35 -25z"/>
<path d="M2350 1285 l0 -166 23 3 c22 3 22 5 22 163 0 158 0 160 -22 163 l-23
3 0 -166z"/>
<path d="M840 1375 c0 -18 5 -25 20 -25 15 0 20 7 20 25 0 18 -5 25 -20 25
-15 0 -20 -7 -20 -25z"/>
<path d="M1860 1353 c2 -26 2 -74 1 -105 l-1 -58 -35 0 c-33 0 -35 -2 -35 -35
0 -33 2 -35 35 -35 32 0 35 -2 35 -30 0 -26 3 -30 29 -30 l30 0 -2 168 -2 167
-28 3 c-29 3 -29 3 -27 -45z"/>
<path d="M1730 1265 c0 -63 1 -65 25 -65 24 0 25 2 25 65 0 63 -1 65 -25 65
-24 0 -25 -2 -25 -65z"/>
<path d="M2420 975 c0 -118 1 -125 20 -125 19 0 20 7 20 125 0 118 -1 125 -20
125 -19 0 -20 -7 -20 -125z"/>
<path d="M1932 1052 c-7 -2 -12 -17 -12 -33 0 -26 3 -29 35 -29 32 0 35 3 35
29 0 22 -5 30 -23 33 -12 2 -28 3 -35 0z"/>
<path d="M2480 776 c0 -60 5 -68 35 -56 18 7 21 16 19 56 -2 45 -4 49 -28 52
-25 3 -26 2 -26 -52z"/>
<path d="M1050 645 l0 -125 29 0 c27 0 30 -4 33 -36 l3 -36 100 -2 100 -1 3
-67 3 -68 113 0 114 0 6 34 c4 22 13 36 26 39 11 3 91 5 178 6 132 0 157 2
160 15 3 13 -21 16 -170 18 l-173 3 -3 38 c-3 34 -6 37 -33 37 -28 0 -30 2
-27 33 2 27 7 32 28 32 21 0 26 6 28 33 3 30 1 32 -27 32 -29 0 -31 2 -31 40
l0 40 -170 0 -170 0 0 -35 0 -35 135 0 135 0 0 -70 0 -71 -137 3 -138 3 -3 62
c-3 62 -3 62 -35 65 l-32 3 -3 68 c-3 59 -5 67 -22 67 -19 0 -20 -8 -20 -125z
m465 -250 c0 -30 0 -30 -64 -33 -69 -3 -81 4 -73 44 4 24 7 25 71 22 l66 -3 0
-30z"/>
<path d="M2560 624 c0 -57 2 -65 18 -62 13 3 17 14 18 53 1 60 -3 75 -22 75
-11 0 -14 -16 -14 -66z"/>
<path d="M1580 537 c0 -18 7 -27 26 -31 31 -8 47 4 42 30 -2 13 -13 20 -36 22
-28 3 -32 0 -32 -21z"/>
<path d="M2620 485 c0 -52 1 -55 25 -55 24 0 25 3 25 55 0 52 -1 55 -25 55
-24 0 -25 -3 -25 -55z"/>
<path d="M2288 363 l-348 -3 0 -25 0 -25 320 0 320 0 32 30 c18 16 31 28 28
27 -3 -1 -161 -3 -352 -4z"/>
</g>
</svg>
